<svg xmlns="http://www.w3.org/2000/svg" viewBox="0 0 64 64" width="48" height="48" fill="none" stroke="#ff6b35" stroke-width="2.5" stroke-linecap="round" stroke-linejoin="round">
  
  <line x1="2" y1="54" x2="62" y2="54" stroke-dasharray="6 6">
    <animate attributeName="stroke-dashoffset" from="0" to="12" dur="0.4s" repeatCount="indefinite" />
  </line>

  <g stroke-width="2">
    <circle cx="41" cy="12" r="1" opacity="0">
      <animate attributeName="cy" values="12; 2" dur="1.2s" begin="0s" repeatCount="indefinite" />
      <animate attributeName="r" values="1; 5" dur="1.2s" begin="0s" repeatCount="indefinite" />
      <animate attributeName="opacity" values="1; 0" dur="1.2s" begin="0s" repeatCount="indefinite" />
    </circle>
    
    <circle cx="41" cy="12" r="1" opacity="0">
      <animate attributeName="cy" values="12; 2" dur="1.2s" begin="-0.4s" repeatCount="indefinite" />
      <animate attributeName="r" values="1; 5" dur="1.2s" begin="-0.4s" repeatCount="indefinite" />
      <animate attributeName="opacity" values="1; 0" dur="1.2s" begin="-0.4s" repeatCount="indefinite" />
    </circle>
    
    <circle cx="41" cy="12" r="1" opacity="0">
      <animate attributeName="cy" values="12; 2" dur="1.2s" begin="-0.8s" repeatCount="indefinite" />
      <animate attributeName="r" values="1; 5" dur="1.2s" begin="-0.8s" repeatCount="indefinite" />
      <animate attributeName="opacity" values="1; 0" dur="1.2s" begin="-0.8s" repeatCount="indefinite" />
    </circle>
  </g>

  <g>
    <animateTransform attributeName="transform" type="translate" values="0,0; 0,-1; 0,0" dur="0.4s" repeatCount="indefinite" />
    
    <rect x="12" y="20" width="16" height="26" rx="2" />
    <rect x="18" y="26" width="6" height="8" rx="1" />
    
    <path d="M28 32 H 46 A 4 4 0 0 1 50 36 V 46 H 28 Z" />
    
    <path d="M38 32 V 20 H 44 V 32" />
    <path d="M36 20 H 46" />

    <path d="M50 46 L 55 52 H 49 Z" />

    <circle cx="18" cy="50" r="4" />
    <circle cx="32" cy="50" r="4" />
    <circle cx="44" cy="50" r="4" />
    
    <line x1="18" y1="50" x2="44" y2="50" />
  </g>
  
</svg>